<?xml version="1.0" encoding="UTF-8"?>
<svg version="1.1" xmlns="http://www.w3.org/2000/svg" width="1312" height="736">
<path d="M0 0 C1.70817191 0.00056958 1.70817191 0.00056958 3.45085233 0.00115067 C5.41324892 -0.00183591 5.41324892 -0.00183591 7.41528988 -0.00488281 C8.88619184 -0.00202921 10.35709363 0.0009164 11.82799524 0.00394398 C13.37565861 0.00350841 14.92332191 0.00263378 16.47098482 0.00135481 C20.74432497 -0.00089302 25.01764031 0.00313506 29.2909773 0.00813287 C33.89154804 0.01243308 38.49211727 0.01099126 43.09268945 0.0102306 C51.07029359 0.00970509 59.04788957 0.0128547 67.02549165 0.01846844 C78.55990483 0.0265798 90.09431404 0.02919828 101.62872975 0.03045643 C120.34049378 0.03264752 139.05225347 0.03930916 157.76401514 0.04875904 C175.94565554 0.05793168 194.12729476 0.06501324 212.30893701 0.06926686 C213.98872794 0.06966094 213.98872794 0.06966094 215.70245404 0.07006299 C221.32021012 0.07136798 226.9379662 0.0726317 232.5557223 0.07387489 C279.19424821 0.08424929 325.8327688 0.1021435 372.47129053 0.1241985 C372.47129053 19.9241985 372.47129053 39.7241985 372.47129053 60.1241985 C317.69129053 60.1241985 262.91129053 60.1241985 206.47129053 60.1241985 C206.47129053 141.9641985 206.47129053 223.8041985 206.47129053 308.1241985 C201.99410316 307.3780006 198.24191623 306.48121975 193.97129053 305.1241985 C180.37988014 301.23483263 165.88814336 300.7912576 152.74863428 306.7335735 C149.47129053 308.1241985 149.47129053 308.1241985 145.47129053 308.1241985 C145.33850866 285.68188111 145.20806595 263.23955111 145.0801391 240.79720551 C145.02064114 230.36819229 144.96047968 219.93918383 144.89853662 209.51018482 C144.8443167 200.38116224 144.79156452 191.25213234 144.74032348 182.12309253 C144.7133468 177.32491344 144.68580827 172.52673971 144.65648645 167.72857434 C144.43976918 131.85945443 144.47129053 95.99530776 144.47129053 60.1241985 C95.63129053 60.1241985 46.79129053 60.1241985 -3.52870947 60.1241985 C-3.52870947 0.17331386 -3.52870947 0.17331386 0 0 Z " fill="#020202" transform="translate(471.52870947122574,167.8758015036583)"/>
<path d="M0 0 C35.23919769 1.58865235 68.73072615 19.54656628 93.62353516 43.67480469 C94.78674126 44.79468456 95.97476283 45.88870269 97.16796875 46.9765625 C124.40699846 72.47454083 137.60233928 110.57448358 138.8984375 147.01953125 C139.81334903 182.77618574 127.07471414 216.85083183 104 244 C103.21238281 244.93457031 102.42476562 245.86914062 101.61328125 246.83203125 C78.01538398 273.74562709 43.45069417 291.35600504 8 296 C5.33218217 296.05028433 2.66861458 296.01726318 0 296 C-0.20001102 288.3422703 -0.3837532 280.68429812 -0.54658794 273.02569008 C-0.62270922 269.46967451 -0.70448251 265.91397449 -0.79907227 262.35839844 C-0.90750997 258.27304813 -0.99154239 254.18751589 -1.07421875 250.1015625 C-1.11157639 248.82133209 -1.14893402 247.54110168 -1.18742371 246.22207642 C-1.20767105 245.04100311 -1.2279184 243.85992981 -1.2487793 242.64306641 C-1.27320602 241.59937897 -1.29763275 240.55569153 -1.32279968 239.4803772 C-1.21627579 238.66185272 -1.10975189 237.84332825 -1 237 C2.31084063 234.79277291 4.76000937 234.2605546 8.625 233.375 C22.05212164 230.01326615 34.32992187 223.82171814 45 215 C46.27423828 213.96939453 46.27423828 213.96939453 47.57421875 212.91796875 C64.11998981 198.85533025 74.50064364 178.51315149 77 157 C78.32895978 131.64753648 70.87354032 109.22503181 54 90 C53.01966797 88.87658203 53.01966797 88.87658203 52.01953125 87.73046875 C37.71635343 72.40755217 19.76403336 66.12649603 0 61 C-0.1536073 53.19434745 -0.30178897 45.38861271 -0.4429636 37.58272648 C-0.5086825 33.95849515 -0.57629966 30.3343196 -0.64819336 26.71020508 C-0.71745158 23.21547391 -0.78180408 19.72068427 -0.84269524 16.22579765 C-0.87863704 14.23754858 -0.91971453 12.24939453 -0.96083069 10.26124573 C-0.98092697 9.06007614 -1.00102325 7.85890656 -1.02172852 6.62133789 C-1.04171402 5.55766495 -1.06169952 4.493992 -1.08229065 3.39808655 C-1 1 -1 1 0 0 Z " fill="#020202" transform="translate(707,253)"/>
<path d="M0 0 C7.58225101 6.2308179 12.12855037 13.68859646 13.83203125 23.3984375 C14.9347539 35.62252156 13.47761779 46.97193947 5.4609375 56.65625 C-2.09615066 64.73889105 -10.79789275 69.73764203 -21.98828125 70.62109375 C-33.75938392 70.96730265 -42.90078605 67.71837475 -52.16796875 60.3984375 C-59.99752548 52.58337995 -64.21821897 42.37211265 -64.41796875 31.3359375 C-64.24131927 19.38800917 -60.70450847 10.24483576 -52.4375 1.5859375 C-37.4589389 -12.12441591 -15.8873576 -11.73660651 0 0 Z " fill="#030303" transform="translate(672.16796875,497.6015625)"/>
<path d="M0 0 C0.66 0.33 1.32 0.66 2 1 C-1.96 4.96 -5.92 8.92 -10 13 C-10 9.28115772 -9.1259934 8.63852271 -6.6875 5.9375 C-5.76517578 4.89916016 -5.76517578 4.89916016 -4.82421875 3.83984375 C-3 2 -3 2 0 0 Z " fill="#363636" transform="translate(625,495)"/>
</svg>
